<?xml version="1.0" encoding="UTF-8"?>
<svg version="1.1" xmlns="http://www.w3.org/2000/svg" width="1920" height="1920">
<path d="M0 0 C633.6 0 1267.2 0 1920 0 C1920 633.6 1920 1267.2 1920 1920 C1286.4 1920 652.8 1920 0 1920 C0 1286.4 0 652.8 0 0 Z " fill="#E2E8EB" transform="translate(0,0)"/>
<path d="M0 0 C1.93747075 0.44153464 3.87497012 0.88294369 5.8125 1.32421875 C39.48937505 9.19246025 72.81838251 20.62244931 104.32568359 34.80322266 C106.83008204 35.9239604 109.34383091 37.01908135 111.86328125 38.10546875 C148.51175309 54.03598971 184.26302335 74.38789406 216.07910156 98.5546875 C218.28477509 100.21426901 220.51168709 101.84269478 222.7421875 103.46875 C233.4323894 111.2661492 243.82531496 119.23442545 253.734375 128.015625 C255.50268744 129.56442279 257.28301526 131.09210571 259.078125 132.609375 C272.65470382 144.09575232 285.41222919 156.32241034 298 168.875 C298.54274567 169.41506683 299.08549133 169.95513367 299.64468384 170.51156616 C305.65022317 176.49459964 311.49973543 182.54300195 317 189 C318.45445517 190.60768373 319.91220895 192.21239715 321.375 193.8125 C326.10767792 199.05855316 330.55821012 204.50763025 335 210 C336.47889611 211.79189 337.95806366 213.583556 339.4375 215.375 C348.35215117 226.29467652 356.63009018 237.57216857 364.69140625 249.12890625 C365.78689356 250.69528959 366.89226803 252.25475191 368 253.8125 C375.46532327 264.31925127 382.21970546 275.26010321 388.8046875 286.33203125 C391.46534697 290.79822223 394.21871525 295.20500994 396.98046875 299.609375 C441.1507766 373.76764814 466.93933671 460.80160965 477.8125 562.625 C477.90792587 563.64441177 477.90792587 563.64441177 478.00527954 564.68441772 C479.54157771 581.46613023 479 598.09010873 479 615 C73.1 615 -332.8 615 -751 615 C-751 575.31077845 -751 575.31077845 -749.8125 562.625 C-749.71405289 561.5054039 -749.71405289 561.5054039 -749.61361694 560.3631897 C-743.7374489 493.63904554 -727.56294913 428.88461654 -702 367 C-701.59652344 366.01950684 -701.19304687 365.03901367 -700.77734375 364.02880859 C-695.98034845 352.43409099 -690.78103956 341.13385397 -685 330 C-684.03770227 328.13023826 -683.07546698 326.26044438 -682.11328125 324.390625 C-656.17833998 274.16734023 -624.18479301 227.35697108 -585.66796875 185.9140625 C-584.29566809 184.41518067 -582.92588734 182.91282165 -581.60961914 181.36450195 C-576.06563437 174.84700697 -570.00479694 168.85390936 -563.94848633 162.81811523 C-562.06671726 160.94170525 -560.19035262 159.06001031 -558.31445312 157.17773438 C-552.37916831 151.2387613 -546.428944 145.40924881 -540 140 C-538.77296937 138.93171738 -537.54771774 137.86138808 -536.32421875 136.7890625 C-528.98567452 130.39607869 -521.61268861 124.06666702 -514 118 C-513.37319336 117.49919922 -512.74638672 116.99839844 -512.10058594 116.48242188 C-500.39894221 107.16291813 -488.35625891 98.42943776 -476 90 C-475.29681641 89.52014648 -474.59363281 89.04029297 -473.86914062 88.54589844 C-465.39270305 82.78373315 -456.77134788 77.30482716 -448 72 C-446.40091797 71.00806641 -446.40091797 71.00806641 -444.76953125 69.99609375 C-368.42339181 22.91817588 -281.68651002 -3.26223936 -193 -13 C-191.79537109 -13.13422363 -190.59074219 -13.26844727 -189.34960938 -13.40673828 C-126.68668893 -19.99357099 -61.21302228 -14.51472904 0 0 Z " fill="#FEFEFE" transform="translate(1096,1305)"/>
<path d="M0 0 C0.55155762 0.37882324 1.10311523 0.75764648 1.67138672 1.14794922 C14.28799046 9.83543292 25.68853627 19.68815399 37 30 C38.41732422 31.26070312 38.41732422 31.26070312 39.86328125 32.546875 C46.88575916 38.82489225 53.34184084 45.47754471 59.63330078 52.48486328 C60.87752512 53.8642231 62.13903791 55.22793843 63.40234375 56.58984375 C79.28157885 73.80862768 92.24053878 93.80836697 104 114 C104.71687988 115.22614014 104.71687988 115.22614014 105.44824219 116.47705078 C128.06817606 155.53632355 142.23160607 199.28930654 148 244 C148.11714355 244.86641113 148.23428711 245.73282227 148.35498047 246.62548828 C155.88106871 304.67589553 149.19380458 369.21373624 132 425 C131.67660645 426.05106934 131.35321289 427.10213867 131.02001953 428.18505859 C120.08924232 463.2297928 104.74212692 497.03136372 81.22460938 525.49902344 C80.12706419 526.84426024 79.06856501 528.22113328 78.015625 529.6015625 C67.28384256 543.46702541 54.06153865 556.52600933 40 567 C38.90324763 567.84844384 37.80692223 568.69743978 36.7109375 569.546875 C20.44616496 581.98137687 2.71606098 591.77678112 -16 600 C-16.73331543 600.32307129 -17.46663086 600.64614258 -18.22216797 600.97900391 C-48.08754265 613.8905966 -80.76122075 619.96168035 -113 623 C-114.01529785 623.09571289 -115.0305957 623.19142578 -116.07666016 623.29003906 C-126.99825282 624.19436444 -137.92179542 624.24340128 -148.875 624.25 C-150.39284088 624.25101212 -150.39284088 624.25101212 -151.94134521 624.25204468 C-228.10766169 624.17184436 -303.19266334 603.85886986 -359 550 C-359.59377441 549.42813965 -360.18754883 548.8562793 -360.79931641 548.26708984 C-368.08007978 541.21752298 -374.87756101 534.09620269 -381 526 C-381.74121094 525.08734375 -382.48242188 524.1746875 -383.24609375 523.234375 C-435.12013675 458.49556933 -450.28383315 369.68774773 -450.1875 288.8125 C-450.18689575 287.86812073 -450.1862915 286.92374146 -450.18566895 285.95074463 C-450.16127924 271.87818389 -449.88815138 257.96504814 -448 244 C-447.8146167 242.56309814 -447.8146167 242.56309814 -447.62548828 241.09716797 C-438.12537704 169.43754103 -405.38042823 100.98239013 -355.55712891 48.65869141 C-353.50075275 46.46818975 -351.53318531 44.20508706 -349.5625 41.9375 C-340.37179306 31.6685537 -329.83923257 22.47792994 -319 14 C-318.40026367 13.52240234 -317.80052734 13.04480469 -317.18261719 12.55273438 C-306.2721794 3.87409986 -294.96991128 -3.85598166 -283 -11 C-282.26700684 -11.43940918 -281.53401367 -11.87881836 -280.77880859 -12.33154297 C-198.65192069 -61.06151622 -100.97484733 -58.49558694 0 0 Z " fill="#FEFEFE" transform="translate(1110,569)"/>
</svg>
